<svg width="152" height="35" viewBox="0 0 152 35" fill="none" xmlns="http://www.w3.org/2000/svg">
<path d="M64.124 15H62.652V3.544H64.124L68.108 10.52H68.172L72.156 3.544H73.628V15H72.156V8.2L72.22 6.28H72.156L68.572 12.568H67.708L64.124 6.28H64.06L64.124 8.2V15ZM75.2293 11.08C75.2293 9.87467 75.6079 8.87733 76.3653 8.088C77.1333 7.29867 78.0986 6.904 79.2613 6.904C80.4239 6.904 81.3839 7.29867 82.1413 8.088C82.9093 8.87733 83.2933 9.87467 83.2933 11.08C83.2933 12.296 82.9093 13.2933 82.1413 14.072C81.3839 14.8613 80.4239 15.256 79.2613 15.256C78.0986 15.256 77.1333 14.8613 76.3653 14.072C75.6079 13.2827 75.2293 12.2853 75.2293 11.08ZM76.7013 11.08C76.7013 11.9227 76.9466 12.6053 77.4373 13.128C77.9279 13.6507 78.5359 13.912 79.2613 13.912C79.9866 13.912 80.5946 13.6507 81.0853 13.128C81.5759 12.6053 81.8213 11.9227 81.8213 11.08C81.8213 10.248 81.5759 9.57067 81.0853 9.048C80.5839 8.51467 79.9759 8.248 79.2613 8.248C78.5466 8.248 77.9386 8.51467 77.4373 9.048C76.9466 9.57067 76.7013 10.248 76.7013 11.08ZM84.4741 7.16H85.8821V8.248H85.9461C86.1701 7.864 86.5115 7.544 86.9701 7.288C87.4395 7.032 87.9248 6.904 88.4261 6.904C89.3861 6.904 90.1221 7.18133 90.6341 7.736C91.1568 8.28 91.4181 9.05867 91.4181 10.072V15H89.9461V10.168C89.9141 8.888 89.2688 8.248 88.0101 8.248C87.4235 8.248 86.9328 8.488 86.5381 8.968C86.1435 9.43733 85.9461 10.0027 85.9461 10.664V15H84.4741V7.16ZM96.666 13.912C97.3913 13.912 97.9833 13.6507 98.442 13.128C98.922 12.6053 99.162 11.9227 99.162 11.08C99.162 10.2587 98.922 9.58133 98.442 9.048C97.9727 8.51467 97.3807 8.248 96.666 8.248C95.962 8.248 95.37 8.51467 94.89 9.048C94.41 9.58133 94.17 10.2587 94.17 11.08C94.17 11.912 94.41 12.5893 94.89 13.112C95.37 13.6453 95.962 13.912 96.666 13.912ZM96.426 15.256C95.402 15.256 94.522 14.8507 93.786 14.04C93.0607 13.2187 92.698 12.232 92.698 11.08C92.698 9.928 93.0607 8.94133 93.786 8.12C94.522 7.30933 95.402 6.904 96.426 6.904C97.002 6.904 97.5247 7.02667 97.994 7.272C98.474 7.51733 98.842 7.84267 99.098 8.248H99.162L99.098 7.16V3.544H100.57V15H99.162V13.912H99.098C98.842 14.3173 98.474 14.6427 97.994 14.888C97.5247 15.1333 97.002 15.256 96.426 15.256ZM103.359 12.6C103.359 12.984 103.519 13.304 103.839 13.56C104.169 13.816 104.553 13.944 104.991 13.944C105.609 13.944 106.159 13.7147 106.639 13.256C107.129 12.7973 107.375 12.2587 107.375 11.64C106.916 11.2773 106.276 11.096 105.455 11.096C104.857 11.096 104.356 11.24 103.951 11.528C103.556 11.816 103.359 12.1733 103.359 12.6ZM105.263 6.904C106.351 6.904 107.209 7.19733 107.839 7.784C108.468 8.36 108.783 9.15467 108.783 10.168V15H107.375V13.912H107.311C106.703 14.808 105.892 15.256 104.879 15.256C104.015 15.256 103.289 15 102.703 14.488C102.127 13.976 101.839 13.336 101.839 12.568C101.839 11.7573 102.143 11.112 102.751 10.632C103.369 10.152 104.191 9.912 105.215 9.912C106.089 9.912 106.809 10.072 107.375 10.392V10.056C107.375 9.544 107.172 9.112 106.767 8.76C106.361 8.39733 105.887 8.216 105.343 8.216C104.521 8.216 103.871 8.56267 103.391 9.256L102.095 8.44C102.809 7.416 103.865 6.904 105.263 6.904ZM117.295 7.16L112.383 18.456H110.863L112.687 14.504L109.455 7.16H111.055L113.391 12.792H113.423L115.695 7.16H117.295ZM121.311 15.256C120.447 15.256 119.701 15.0213 119.071 14.552C118.442 14.0827 117.999 13.432 117.743 12.6L119.135 12.024C119.498 13.24 120.223 13.848 121.311 13.848C121.909 13.848 122.389 13.64 122.751 13.224C123.125 12.7973 123.311 12.248 123.311 11.576V3.544H124.783V11.448C124.783 12.632 124.469 13.5653 123.839 14.248C123.221 14.92 122.378 15.256 121.311 15.256ZM126.042 11.08C126.042 9.87467 126.42 8.87733 127.178 8.088C127.946 7.29867 128.911 6.904 130.074 6.904C131.236 6.904 132.196 7.29867 132.954 8.088C133.722 8.87733 134.106 9.87467 134.106 11.08C134.106 12.296 133.722 13.2933 132.954 14.072C132.196 14.8613 131.236 15.256 130.074 15.256C128.911 15.256 127.946 14.8613 127.178 14.072C126.42 13.2827 126.042 12.2853 126.042 11.08ZM127.514 11.08C127.514 11.9227 127.759 12.6053 128.25 13.128C128.74 13.6507 129.348 13.912 130.074 13.912C130.799 13.912 131.407 13.6507 131.898 13.128C132.388 12.6053 132.634 11.9227 132.634 11.08C132.634 10.248 132.388 9.57067 131.898 9.048C131.396 8.51467 130.788 8.248 130.074 8.248C129.359 8.248 128.751 8.51467 128.25 9.048C127.759 9.57067 127.514 10.248 127.514 11.08ZM139.509 15.256C138.933 15.256 138.405 15.1333 137.925 14.888C137.455 14.6427 137.093 14.3173 136.837 13.912H136.773V15H135.365V3.544H136.837V7.16L136.773 8.248H136.837C137.093 7.84267 137.455 7.51733 137.925 7.272C138.405 7.02667 138.933 6.904 139.509 6.904C140.543 6.904 141.418 7.30933 142.133 8.12C142.869 8.94133 143.237 9.928 143.237 11.08C143.237 12.2427 142.869 13.2293 142.133 14.04C141.418 14.8507 140.543 15.256 139.509 15.256ZM139.269 13.912C139.973 13.912 140.565 13.6453 141.045 13.112C141.525 12.5893 141.765 11.912 141.765 11.08C141.765 10.2587 141.525 9.58133 141.045 9.048C140.565 8.51467 139.973 8.248 139.269 8.248C138.554 8.248 137.957 8.51467 137.477 9.048C137.007 9.58133 136.773 10.2587 136.773 11.08C136.773 11.912 137.007 12.5947 137.477 13.128C137.957 13.6507 138.554 13.912 139.269 13.912ZM150.505 12.824C150.505 13.5067 150.207 14.0827 149.609 14.552C149.012 15.0213 148.26 15.256 147.353 15.256C146.564 15.256 145.871 15.0533 145.273 14.648C144.676 14.232 144.249 13.688 143.993 13.016L145.305 12.456C145.497 12.9253 145.775 13.2933 146.137 13.56C146.511 13.816 146.916 13.944 147.353 13.944C147.823 13.944 148.212 13.8427 148.521 13.64C148.841 13.4373 149.001 13.1973 149.001 12.92C149.001 12.4187 148.617 12.0507 147.849 11.816L146.505 11.48C144.98 11.096 144.217 10.36 144.217 9.272C144.217 8.55733 144.505 7.98667 145.081 7.56C145.668 7.12267 146.415 6.904 147.321 6.904C148.015 6.904 148.639 7.06933 149.193 7.4C149.759 7.73067 150.153 8.17333 150.377 8.728L149.065 9.272C148.916 8.94133 148.671 8.68533 148.329 8.504C147.999 8.312 147.625 8.216 147.209 8.216C146.825 8.216 146.479 8.312 146.169 8.504C145.871 8.696 145.721 8.93067 145.721 9.208C145.721 9.656 146.143 9.976 146.985 10.168L148.169 10.472C149.727 10.856 150.505 11.64 150.505 12.824Z" fill="white"/>
<path opacity="0.4" d="M67.188 30.847H62.364V22.255H63.468V29.791H67.188V30.847ZM69.5766 22.939C69.5766 23.155 69.5006 23.339 69.3486 23.491C69.1966 23.643 69.0126 23.719 68.7966 23.719C68.5806 23.719 68.3966 23.643 68.2446 23.491C68.0926 23.339 68.0166 23.155 68.0166 22.939C68.0166 22.723 68.0926 22.539 68.2446 22.387C68.3966 22.235 68.5806 22.159 68.7966 22.159C69.0126 22.159 69.1966 22.235 69.3486 22.387C69.5006 22.539 69.5766 22.723 69.5766 22.939ZM69.3486 24.967V30.847H68.2446V24.967H69.3486ZM75.9573 30.847H74.6253L72.7893 28.075L71.8893 28.963V30.847H70.7853V22.255H71.8893V27.547L74.4333 24.967H75.8493V25.015L73.5573 27.295L75.9573 30.799V30.847ZM79.0503 31.039C78.1863 31.039 77.4743 30.743 76.9143 30.151C76.3543 29.559 76.0743 28.811 76.0743 27.907C76.0743 27.011 76.3463 26.267 76.8903 25.675C77.4343 25.075 78.1303 24.775 78.9783 24.775C79.8503 24.775 80.5423 25.059 81.0543 25.627C81.5743 26.187 81.8343 26.975 81.8343 27.991L81.8223 28.111H77.2023C77.2183 28.687 77.4103 29.151 77.7783 29.503C78.1463 29.855 78.5863 30.031 79.0983 30.031C79.8023 30.031 80.3543 29.679 80.7543 28.975L81.7383 29.455C81.4743 29.951 81.1063 30.339 80.6343 30.619C80.1703 30.899 79.6423 31.039 79.0503 31.039ZM77.2863 27.199H80.6583C80.6263 26.791 80.4583 26.455 80.1543 26.191C79.8583 25.919 79.4583 25.783 78.9543 25.783C78.5383 25.783 78.1783 25.911 77.8743 26.167C77.5783 26.423 77.3823 26.767 77.2863 27.199ZM86.7766 30.847H85.6726V22.255H87.0166L91.1926 28.939H91.2406L91.1926 27.283V22.255H92.2966V30.847H91.1446L86.7766 23.839H86.7286L86.7766 25.495V30.847ZM93.5001 27.907C93.5001 27.003 93.7841 26.255 94.3521 25.663C94.9281 25.071 95.6521 24.775 96.5241 24.775C97.3961 24.775 98.1161 25.071 98.6841 25.663C99.2601 26.255 99.5481 27.003 99.5481 27.907C99.5481 28.819 99.2601 29.567 98.6841 30.151C98.1161 30.743 97.3961 31.039 96.5241 31.039C95.6521 31.039 94.9281 30.743 94.3521 30.151C93.7841 29.559 93.5001 28.811 93.5001 27.907ZM94.6041 27.907C94.6041 28.539 94.7881 29.051 95.1561 29.443C95.5241 29.835 95.9801 30.031 96.5241 30.031C97.0681 30.031 97.5241 29.835 97.8921 29.443C98.2601 29.051 98.4441 28.539 98.4441 27.907C98.4441 27.283 98.2601 26.775 97.8921 26.383C97.5161 25.983 97.0601 25.783 96.5241 25.783C95.9881 25.783 95.5321 25.983 95.1561 26.383C94.7881 26.775 94.6041 27.283 94.6041 27.907ZM102.703 30.943C102.223 30.943 101.823 30.795 101.503 30.499C101.191 30.203 101.031 29.791 101.023 29.263V25.975H99.9911V24.967H101.023V23.167H102.127V24.967H103.567V25.975H102.127V28.903C102.127 29.295 102.203 29.563 102.355 29.707C102.507 29.843 102.679 29.911 102.871 29.911C102.959 29.911 103.043 29.903 103.123 29.887C103.211 29.863 103.291 29.835 103.363 29.803L103.711 30.787C103.423 30.891 103.087 30.943 102.703 30.943ZM104.676 22.255H105.78V24.967L105.732 25.783H105.78C105.948 25.495 106.204 25.255 106.548 25.063C106.9 24.871 107.264 24.775 107.64 24.775C108.36 24.775 108.912 24.983 109.296 25.399C109.688 25.807 109.884 26.391 109.884 27.151V30.847H108.78V27.367C108.78 26.311 108.312 25.783 107.376 25.783C106.928 25.783 106.548 25.971 106.236 26.347C105.932 26.715 105.78 27.147 105.78 27.643V30.847H104.676V22.255ZM112.608 22.939C112.608 23.155 112.532 23.339 112.38 23.491C112.228 23.643 112.044 23.719 111.828 23.719C111.612 23.719 111.428 23.643 111.276 23.491C111.124 23.339 111.048 23.155 111.048 22.939C111.048 22.723 111.124 22.539 111.276 22.387C111.428 22.235 111.612 22.159 111.828 22.159C112.044 22.159 112.228 22.235 112.38 22.387C112.532 22.539 112.608 22.723 112.608 22.939ZM112.38 24.967V30.847H111.276V24.967H112.38ZM113.817 24.967H114.873V25.783H114.921C115.089 25.495 115.345 25.255 115.689 25.063C116.041 24.871 116.405 24.775 116.781 24.775C117.501 24.775 118.053 24.983 118.437 25.399C118.829 25.807 119.025 26.391 119.025 27.151V30.847H117.921V27.223C117.897 26.263 117.413 25.783 116.469 25.783C116.029 25.783 115.661 25.963 115.365 26.323C115.069 26.675 114.921 27.099 114.921 27.595V30.847H113.817V24.967ZM122.902 30.031C123.446 30.031 123.89 29.835 124.234 29.443C124.594 29.051 124.774 28.539 124.774 27.907C124.774 27.291 124.594 26.783 124.234 26.383C123.882 25.983 123.438 25.783 122.902 25.783C122.374 25.783 121.93 25.983 121.57 26.383C121.21 26.783 121.03 27.291 121.03 27.907C121.03 28.531 121.21 29.039 121.57 29.431C121.93 29.831 122.374 30.031 122.902 30.031ZM122.866 33.631C122.538 33.631 122.23 33.587 121.942 33.499C121.654 33.419 121.39 33.303 121.15 33.151C120.918 32.999 120.718 32.819 120.55 32.611C120.382 32.403 120.254 32.171 120.166 31.915L121.21 31.483C121.33 31.827 121.538 32.103 121.834 32.311C122.13 32.519 122.474 32.623 122.866 32.623C123.466 32.623 123.934 32.443 124.27 32.083C124.606 31.723 124.774 31.227 124.774 30.595V30.031H124.726C124.518 30.343 124.234 30.591 123.874 30.775C123.522 30.951 123.138 31.039 122.722 31.039C121.954 31.039 121.294 30.739 120.742 30.139C120.198 29.523 119.926 28.779 119.926 27.907C119.926 27.035 120.198 26.295 120.742 25.687C121.294 25.079 121.954 24.775 122.722 24.775C123.138 24.775 123.522 24.867 123.874 25.051C124.234 25.227 124.518 25.471 124.726 25.783H124.774V24.967H125.83V30.595C125.83 31.539 125.562 32.279 125.026 32.815C124.482 33.359 123.762 33.631 122.866 33.631ZM131.617 29.215C131.617 29.727 131.393 30.159 130.945 30.511C130.497 30.863 129.933 31.039 129.253 31.039C128.661 31.039 128.141 30.887 127.693 30.583C127.245 30.271 126.925 29.863 126.733 29.359L127.717 28.939C127.861 29.291 128.069 29.567 128.341 29.767C128.621 29.959 128.925 30.055 129.253 30.055C129.605 30.055 129.897 29.979 130.129 29.827C130.369 29.675 130.489 29.495 130.489 29.287C130.489 28.911 130.201 28.635 129.625 28.459L128.617 28.207C127.473 27.919 126.901 27.367 126.901 26.551C126.901 26.015 127.117 25.587 127.549 25.267C127.989 24.939 128.549 24.775 129.229 24.775C129.749 24.775 130.217 24.899 130.633 25.147C131.057 25.395 131.353 25.727 131.521 26.143L130.537 26.551C130.425 26.303 130.241 26.111 129.985 25.975C129.737 25.831 129.457 25.759 129.145 25.759C128.857 25.759 128.597 25.831 128.365 25.975C128.141 26.119 128.029 26.295 128.029 26.503C128.029 26.839 128.345 27.079 128.977 27.223L129.865 27.451C131.033 27.739 131.617 28.327 131.617 29.215Z" fill="white"/>
<path d="M2.83862 21.2505V28.8064C2.83862 29.4353 3.08843 30.0384 3.53309 30.4831C3.97776 30.9277 4.58085 31.1775 5.2097 31.1775H12.7657C14.8781 31.1775 15.9361 28.6235 14.4423 27.1298L6.88633 19.5738C5.39266 18.0801 2.83862 19.138 2.83862 21.2505Z" fill="white"/>
<path d="M50.2194 21.2505V28.8064C50.2194 29.4353 49.9696 30.0384 49.525 30.4831C49.0803 30.9277 48.4772 31.1775 47.8484 31.1775H40.2929C38.1805 31.1775 37.1225 28.6235 38.6163 27.1298L46.1722 19.5738C47.6659 18.0801 50.2194 19.138 50.2194 21.2505Z" fill="white"/>
<path d="M30.5043 21.929L12.6131 4.03772C10.3832 1.80778 6.76772 1.80778 4.53778 4.03772L4.53769 4.03781C2.30776 6.26774 2.30776 9.88318 4.53769 12.1131L22.4289 30.0044C24.6589 32.2343 28.2743 32.2343 30.5043 30.0044L30.5043 30.0043C32.7343 27.7743 32.7343 24.1589 30.5043 21.929Z" fill="url(#paint0_linear)"/>
<path d="M40.4454 4.03774L22.5543 21.9288C20.3244 24.1588 20.3243 27.7743 22.5543 30.0043C24.7843 32.2342 28.3998 32.2342 30.6297 30.0042L48.5208 12.1131C50.7508 9.88316 50.7508 6.26765 48.5209 4.03769C46.2909 1.80773 42.6754 1.80776 40.4454 4.03774Z" fill="white"/>
<defs>
<linearGradient id="paint0_linear" x1="4.41264" y1="4.52639" x2="32.6965" y2="26.8723" gradientUnits="userSpaceOnUse">
<stop stop-color="white"/>
<stop offset="1" stop-color="white" stop-opacity="0.2"/>
</linearGradient>
</defs>
</svg>
