<svg width="21" height="18" viewBox="0 0 21 18" fill="none" xmlns="http://www.w3.org/2000/svg">
<path fill-rule="evenodd" clip-rule="evenodd" d="M8.30327 12.2526C8.92774 12.6759 9.68882 12.9319 10.4987 12.9319C12.6453 12.9319 14.3919 11.1696 14.3919 9.00369C14.3919 8.18655 14.1382 7.41863 13.7186 6.78855L12.6551 7.86166C12.8307 8.1964 12.9283 8.5902 12.9283 9.00369C12.9283 10.3525 11.8354 11.4551 10.4987 11.4551C10.0889 11.4551 9.69858 11.3567 9.36683 11.1795L8.30327 12.2526ZM16.9288 3.54952C18.3436 4.84907 19.5438 6.60149 20.4415 8.70834C20.5195 8.8954 20.5195 9.11199 20.4415 9.2892C18.3534 14.1921 14.6358 17.1259 10.4987 17.1259H10.4889C8.60575 17.1259 6.80063 16.5056 5.21018 15.3735L3.31725 17.2834C3.17089 17.4311 2.9855 17.5 2.80011 17.5C2.61472 17.5 2.41957 17.4311 2.28297 17.2834C2.03903 17.0373 2 16.6435 2.19515 16.358L2.22442 16.3186L16.6556 1.75771C16.6751 1.73802 16.6946 1.71833 16.7044 1.69864L16.7044 1.69863C16.7239 1.67894 16.7434 1.65925 16.7532 1.63957L17.6704 0.714131C17.9631 0.428623 18.4217 0.428623 18.7046 0.714131C18.9974 0.999638 18.9974 1.4722 18.7046 1.75771L16.9288 3.54952ZM6.59836 9.00753C6.59836 9.2635 6.62764 9.51948 6.66667 9.75576L3.05643 13.3984C2.0807 12.2564 1.2318 10.8781 0.558544 9.29304C0.480485 9.11583 0.480485 8.89924 0.558544 8.71218C2.64662 3.80933 6.36419 0.885337 10.4916 0.885337H10.5013C11.8966 0.885337 13.2529 1.22007 14.5018 1.85015L11.2429 5.13841C11.0087 5.09903 10.755 5.0695 10.5013 5.0695C8.34494 5.0695 6.59836 6.83177 6.59836 9.00753Z" fill="#333333"/>
</svg>
